<svg width="108" height="32" viewBox="0 0 108 32" fill="none" xmlns="http://www.w3.org/2000/svg">
<path d="M6.68887 16.2808C8.21119 20.062 12.4873 21.8839 16.2204 20.3427C17.4518 19.8342 18.5204 19.0018 19.3116 17.9319C20.2076 16.7206 21.9044 16.4732 23.101 17.3802C24.2975 18.2872 24.5419 20.0051 23.6459 21.2164C22.2671 23.0834 20.4054 24.5363 18.2644 25.4197C11.7659 28.1015 4.32489 24.9289 1.67584 18.35" fill="#F15A24"/>
<path d="M6.68887 16.2808C8.21119 20.062 12.4873 21.8839 16.2204 20.3427C17.4518 19.8342 18.5204 19.0018 19.3116 17.9319C20.2076 16.7206 21.9044 16.4732 23.101 17.3802C24.2975 18.2872 24.5419 20.0051 23.6459 21.2164C22.2671 23.0834 20.4054 24.5363 18.2644 25.4197C11.7659 28.1015 4.32489 24.9289 1.67584 18.35" stroke="white" stroke-width="0.64" stroke-miterlimit="10"/>
<path d="M25.4038 13.4893C28.0466 20.0388 24.8714 27.5194 18.3259 30.1645C11.7824 32.8097 4.3086 29.6316 1.66585 23.0822C1.10219 21.6863 1.77703 20.0993 3.17154 19.5351C4.56605 18.9709 6.1517 19.6464 6.71536 21.0422C8.23275 24.8059 12.5275 26.6312 16.2878 25.1124C20.0481 23.5936 21.8737 19.295 20.3543 15.5313" fill="#F15A24"/>
<path d="M25.4038 13.4893C28.0466 20.0388 24.8714 27.5194 18.3259 30.1645C11.7824 32.8097 4.3086 29.6316 1.66585 23.0822C1.10219 21.6863 1.77703 20.0993 3.17154 19.5351C4.56605 18.9709 6.1517 19.6464 6.71536 21.0422C8.23275 24.8059 12.5275 26.6312 16.2878 25.1124C20.0481 23.5936 21.8737 19.295 20.3543 15.5313" stroke="white" stroke-width="0.64" stroke-miterlimit="10"/>
<path d="M20.2383 15.6365C18.7293 11.8595 14.4581 10.0278 10.7185 11.5519C9.48486 12.0553 8.41417 12.8841 7.61893 13.9478C6.71892 15.1546 5.02173 15.3956 3.8269 14.4865C2.63207 13.5776 2.3935 11.8633 3.29349 10.6566C4.67841 8.79939 6.54436 7.35559 8.68958 6.4799C15.1971 3.82537 22.6299 7.01472 25.2581 13.5873" fill="#F15A24"/>
<path d="M20.2383 15.6365C18.7293 11.8595 14.4581 10.0278 10.7185 11.5519C9.48486 12.0553 8.41417 12.8841 7.61893 13.9478C6.71892 15.1546 5.02173 15.3956 3.8269 14.4865C2.63207 13.5776 2.3935 11.8633 3.29349 10.6566C4.67841 8.79939 6.54436 7.35559 8.68958 6.4799C15.1971 3.82537 22.6299 7.01472 25.2581 13.5873" stroke="white" stroke-width="0.64" stroke-miterlimit="10"/>
<path d="M1.76026 18.4278C-0.886161 11.8997 2.24266 4.42491 8.7347 1.76578C15.1764 -0.873876 22.5461 2.2041 25.2429 8.62888C25.8222 10.0062 25.2816 11.6523 23.9313 12.2757C22.5228 12.9244 20.8761 12.2582 20.2968 10.8322C18.776 7.08016 14.5042 5.27233 10.7748 6.80158C7.04341 8.33079 5.24555 12.6263 6.76637 16.3764" fill="#F15A24"/>
<path d="M1.76026 18.4278C-0.886161 11.8997 2.24266 4.42491 8.7347 1.76578C15.1764 -0.873876 22.5461 2.2041 25.2429 8.62888C25.8222 10.0062 25.2816 11.6523 23.9313 12.2757C22.5228 12.9244 20.8761 12.2582 20.2968 10.8322C18.776 7.08016 14.5042 5.27233 10.7748 6.80158C7.04341 8.33079 5.24555 12.6263 6.76637 16.3764" stroke="white" stroke-width="0.64" stroke-miterlimit="10"/>
<path d="M35.6616 13.6304C34.9392 13.4908 34.3453 13.2997 33.878 13.0549V10.4009C34.4783 10.7123 35.1021 10.9464 35.7517 11.101C36.4013 11.2577 37.0209 11.335 37.6103 11.335C38.155 11.335 38.5665 11.2513 38.8431 11.0837C39.1196 10.9163 39.259 10.6779 39.259 10.3666C39.259 10.1325 39.1839 9.93066 39.0339 9.75679C38.8838 9.58498 38.6651 9.42604 38.3757 9.28221C38.0863 9.13837 37.6361 8.93653 37.0272 8.68102C35.9489 8.2258 35.1664 7.71905 34.6776 7.16288C34.1889 6.60674 33.9444 5.92177 33.9444 5.11011C33.9444 4.44232 34.131 3.84753 34.5019 3.3236C34.8727 2.80182 35.3937 2.39384 36.0604 2.10611C36.7272 1.81623 37.4925 1.67236 38.3607 1.67236C39.0725 1.67236 39.7049 1.72819 40.2601 1.83985C40.8154 1.9515 41.3492 2.12973 41.8595 2.37452V4.96195C40.8818 4.45091 39.8978 4.19323 38.9095 4.19323C38.3757 4.19323 37.9512 4.27912 37.6339 4.45091C37.3167 4.62268 37.1602 4.87176 37.1602 5.19385C37.1602 5.51594 37.321 5.77791 37.6425 5.97759C37.9641 6.17729 38.5601 6.45 39.4262 6.7957C40.2151 7.11779 40.8282 7.43556 41.2677 7.74695C41.7072 8.05825 42.0267 8.42116 42.226 8.83126C42.4254 9.24356 42.5261 9.76533 42.5261 10.4009C42.5261 11.481 42.1338 12.3227 41.3513 12.9304C40.5688 13.538 39.3983 13.8408 37.8441 13.8408C37.1109 13.8408 36.3841 13.7721 35.6616 13.6326V13.6304Z" fill="#15141D"/>
<path d="M44.3305 13.0143C43.8246 12.4646 43.5716 11.7109 43.5716 10.7532V7.61608H42.4376V5.58051H43.5716V3.17773H46.5043V5.58051H48.3373V7.61608H46.5043V10.3539C46.5043 10.7876 46.5858 11.0989 46.7466 11.2879C46.9074 11.4768 47.1947 11.5714 47.6041 11.5714C47.9707 11.5714 48.3373 11.4704 48.7039 11.2707V13.4567C48.4144 13.5897 48.1058 13.6885 47.7799 13.7487C47.4519 13.8087 47.0488 13.841 46.573 13.841C45.5847 13.841 44.8364 13.5661 44.3327 13.0143H44.3305Z" fill="#15141D"/>
<path d="M49.882 13.1131C49.2647 12.63 48.9581 11.9535 48.9581 11.0861C48.9581 10.2186 49.2561 9.49281 49.8499 9.00756C50.4438 8.52444 51.297 8.28173 52.4075 8.28173C52.8405 8.28173 53.2736 8.32899 53.7066 8.42352C54.1397 8.51796 54.5127 8.64251 54.8235 8.79923V8.63176C54.8235 7.77498 54.1247 7.34556 52.7248 7.34556C51.7472 7.34556 50.8532 7.53449 50.0429 7.91242V5.89402C50.3987 5.72654 50.8639 5.59126 51.4428 5.48605C52.0195 5.38083 52.6197 5.32715 53.2414 5.32715C54.7292 5.32715 55.8548 5.62562 56.6158 6.22041C57.3768 6.81519 57.7563 7.6483 57.7563 8.71554V13.5898H55.0079V12.9048C54.7078 13.1946 54.3305 13.4222 53.8738 13.5898C53.4194 13.7573 52.8963 13.841 52.3067 13.841C51.3077 13.841 50.4995 13.5983 49.882 13.1152V13.1131ZM54.1397 11.8268C54.4398 11.6873 54.6671 11.5069 54.8235 11.2836V10.5836C54.3455 10.2615 53.8009 10.1005 53.19 10.1005C52.8019 10.1005 52.5018 10.1843 52.2896 10.3517C52.0773 10.5192 51.9723 10.7639 51.9723 11.0861C51.9723 11.3867 52.0752 11.6207 52.281 11.7861C52.4869 11.9535 52.7827 12.0373 53.1729 12.0373C53.518 12.0373 53.8395 11.9686 54.1397 11.8291V11.8268Z" fill="#15141D"/>
<path d="M59.1768 5.57818H62.0088V6.46285C62.3539 6.08493 62.7698 5.8015 63.2586 5.61254C63.7474 5.42358 64.2577 5.3291 64.7915 5.3291C65.9127 5.3291 66.7444 5.62113 67.2826 6.20518C67.8207 6.78924 68.0908 7.58154 68.0908 8.58437V13.5917H65.158V8.9687C65.158 8.06687 64.7464 7.61805 63.9253 7.61805C63.5481 7.61805 63.2029 7.70396 62.8921 7.87578C62.5812 8.04751 62.3196 8.31163 62.1096 8.66806V13.5917H59.1768V5.58033V5.57818Z" fill="#15141D"/>
<path d="M33.588 18.1284H36.7372L39.7021 25.8886L42.6691 18.1284H45.8012L41.1535 29.7944H38.255L33.5901 18.1284H33.588Z" fill="#15141D"/>
<path d="M46.2268 28.9428C45.3329 28.2085 44.8848 27.1692 44.8848 25.8208C44.8848 24.4723 45.2815 23.4503 46.0768 22.6836C46.87 21.9149 48.017 21.5327 49.5176 21.5327C50.4737 21.5327 51.2927 21.7131 51.9744 22.076C52.6583 22.4368 53.175 22.9328 53.5244 23.5618C53.8738 24.191 54.0496 24.8996 54.0496 25.6898V26.7741H47.6675C47.779 27.2186 48.0555 27.5429 48.5014 27.7426C48.9452 27.9422 49.5519 28.0432 50.3173 28.0432C50.8382 28.0432 51.3763 27.9981 51.9251 27.9101C52.474 27.822 52.9498 27.6996 53.3486 27.5429V29.4797C52.937 29.6472 52.4247 29.7825 51.8072 29.8877C51.1898 29.9929 50.5595 30.0466 49.9164 30.0466C48.3492 30.0466 47.1187 29.6794 46.2247 28.9451L46.2268 28.9428ZM51.2841 24.9383C51.2391 24.5045 51.0612 24.1652 50.7503 23.9205C50.4395 23.6756 50.0107 23.5533 49.4683 23.5533C48.9259 23.5533 48.5122 23.6779 48.2014 23.929C47.8905 24.1803 47.7125 24.5153 47.6675 24.9383H51.2841Z" fill="#15141D"/>
<path d="M55.2139 21.7832H58.0459V22.6679C58.391 22.29 58.8069 22.0065 59.2958 21.8176C59.7846 21.6286 60.2948 21.5342 60.8286 21.5342C61.9498 21.5342 62.7816 21.8262 63.3197 22.4102C63.8578 22.9943 64.1279 23.7866 64.1279 24.7894V29.7967H61.1952V25.1737C61.1952 24.2719 60.7836 23.8231 59.9625 23.8231C59.5852 23.8231 59.24 23.909 58.9292 24.0808C58.6183 24.2525 58.3568 24.5167 58.1467 24.8731V29.7967H55.2139V21.7853V21.7832Z" fill="#15141D"/>
<path d="M66.7769 29.2164C66.2709 28.6667 66.018 27.9131 66.018 26.9554V23.8182H64.8839V21.7826H66.018V19.3799H68.9507V21.7826H70.7837V23.8182H68.9507V26.5559C68.9507 26.9897 69.0321 27.301 69.1929 27.49C69.3537 27.679 69.6409 27.7734 70.0505 27.7734C70.4171 27.7734 70.7836 27.6726 71.1502 27.4728V29.6587C70.8608 29.7919 70.5521 29.8907 70.2263 29.9507C69.8983 30.0109 69.4952 30.0431 69.0193 30.0431C68.031 30.0431 67.2828 29.7682 66.779 29.2164H66.7769Z" fill="#15141D"/>
<path d="M72.636 29.1273C72.085 28.5153 71.8106 27.708 71.8106 26.7073V21.7837H74.7433V26.3723C74.7433 27.2957 75.1592 27.7573 75.9932 27.7573C76.3705 27.7573 76.7156 27.6693 77.0265 27.491C77.3373 27.3128 77.5924 27.0509 77.794 26.7073V21.7837H80.7267V29.795H77.8947V28.9276C77.5496 29.2947 77.1337 29.5739 76.6449 29.7629C76.1561 29.9518 75.6459 30.0463 75.1121 30.0463C74.0123 30.0463 73.1869 29.7414 72.6381 29.1273H72.636Z" fill="#15141D"/>
<path d="M82.2256 21.7832H85.0576V22.7838C85.3681 22.4273 85.8072 22.1525 86.3733 21.9571C86.9393 21.7617 87.5677 21.665 88.2558 21.665V23.9175C87.5226 23.9175 86.8754 24.0227 86.3159 24.2353C85.7539 24.4479 85.3681 24.7635 85.1584 25.1865V29.7924H82.2256V21.781V21.7832Z" fill="#15141D"/>
<path d="M90.1007 28.9428C89.207 28.2085 88.7589 27.1692 88.7589 25.8208C88.7589 24.4723 89.1553 23.4503 89.9508 22.6836C90.7438 21.9149 91.8907 21.5327 93.3914 21.5327C94.3474 21.5327 95.1666 21.7131 95.8482 22.076C96.5322 22.4368 97.0492 22.9328 97.3981 23.5618C97.7479 24.191 97.9232 24.8996 97.9232 25.6898V26.7741H91.5417C91.6531 27.2186 91.9292 27.5429 92.3756 27.7426C92.8213 27.9422 93.4258 28.0432 94.191 28.0432C94.712 28.0432 95.2502 27.9981 95.7991 27.9101C96.3479 27.822 96.8239 27.6996 97.2245 27.5429V29.4797C96.8132 29.6472 96.3004 29.7825 95.6835 29.8877C95.0659 29.9929 94.4351 30.0466 93.792 30.0466C92.2249 30.0466 90.9944 29.6794 90.1007 28.9451V28.9428ZM95.1576 24.9383C95.1126 24.5045 94.9348 24.1652 94.6243 23.9205C94.313 23.6756 93.8846 23.5533 93.3398 23.5533C92.795 23.5533 92.3838 23.6779 92.0733 23.929C91.762 24.1803 91.5843 24.5153 91.5392 24.9383H95.156H95.1576Z" fill="#15141D"/>
<path d="M100.522 29.8523C99.8209 29.7235 99.2655 29.5431 98.8559 29.3091V27.1554C99.3105 27.4216 99.8594 27.6428 100.498 27.8146C101.137 27.9864 101.722 28.0723 102.256 28.0723C102.644 28.0723 102.927 28.0444 103.105 27.9885C103.283 27.9327 103.371 27.821 103.371 27.6557C103.371 27.5225 103.313 27.4131 103.195 27.3293C103.08 27.2455 102.868 27.1575 102.563 27.0631C102.256 26.9686 101.905 26.8655 101.504 26.7539C100.826 26.5542 100.293 26.3481 99.9045 26.1355C99.5162 25.925 99.227 25.6566 99.0386 25.3345C98.8493 25.0124 98.7551 24.6066 98.7551 24.117C98.7551 23.2496 99.0959 22.6011 99.7799 22.1738C100.464 21.7465 101.399 21.5317 102.588 21.5317C103.165 21.5317 103.774 21.594 104.413 21.7143C105.051 21.8366 105.532 21.9977 105.853 22.1974V24.3167C105.521 24.0934 105.079 23.9109 104.529 23.7671C103.978 23.6231 103.466 23.5502 102.987 23.5502C102.61 23.5502 102.316 23.5866 102.104 23.6597C101.892 23.7327 101.787 23.8572 101.787 24.0355C101.787 24.2029 101.892 24.3296 102.104 24.4198C102.314 24.51 102.694 24.6195 103.238 24.7527C103.594 24.8428 103.744 24.8815 103.688 24.8686C104.398 25.0576 104.949 25.2701 105.337 25.502C105.725 25.736 106.002 26.0109 106.162 26.3287C106.323 26.6465 106.405 27.0502 106.405 27.5376C106.405 28.3063 106.075 28.914 105.414 29.3649C104.754 29.8158 103.796 30.0413 102.539 30.0413C101.894 30.0413 101.223 29.9769 100.524 29.8502L100.522 29.8523Z" fill="#15141D"/>
</svg>
